<svg xmlns="http://www.w3.org/2000/svg" width="164" height="164" viewBox="0 0 164 164"><rect width="164" height="164" rx="38" fill="#F97316"/><path fill="#FFFFFF" d="M43.25 44.5 H88.25 A7.5 7.5 0 0 1 88.25 59.5 H43.25 A7.5 7.5 0 0 1 43.25 44.5 Z"/>
<path fill="#FFFFFF" d="M43.25 74.5 H72 A7.5 7.5 0 0 1 72 89.5 H43.25 A7.5 7.5 0 0 1 43.25 74.5 Z"/>
<path fill="#FFFFFF" d="M43.25 104.5 H64.5 A7.5 7.5 0 0 1 64.5 119.5 H43.25 A7.5 7.5 0 0 1 43.25 104.5 Z"/><path d="M74.5 99.5 L90.75 115.75 L127 73.25" fill="none" stroke="#FFFFFF" stroke-width="12" stroke-linecap="round" stroke-linejoin="round"/></svg>